<mxfile host="51af5727-1fc7-4bbb-b584-015a4c120632" modified="2020-09-26T13:01:12.071Z" agent="5.0 (Macintosh; Intel Mac OS X 10_14_6) AppleWebKit/537.36 (KHTML, like Gecko) Code/1.49.0 Chrome/83.0.4103.122 Electron/9.2.1 Safari/537.36" etag="Wh5Os6ErarG8AIUJhuko" version="13.1.3">
    <diagram id="6hGFLwfOUW9BJ-s0fimq" name="Page-1">
        <mxGraphModel dx="918" dy="3018" grid="1" gridSize="10" guides="1" tooltips="1" connect="1" arrows="1" fold="1" page="1" pageScale="1" pageWidth="827" pageHeight="1169" math="0" shadow="0">
            <root>
                <mxCell id="0"/>
                <mxCell id="1" parent="0"/>
                <mxCell id="50" style="edgeStyle=orthogonalEdgeStyle;rounded=0;orthogonalLoop=1;jettySize=auto;html=1;fontFamily=Helvetica;" parent="1" edge="1">
                    <mxGeometry relative="1" as="geometry">
                        <mxPoint x="470" y="290" as="targetPoint"/>
                        <mxPoint x="470" y="280" as="sourcePoint"/>
                    </mxGeometry>
                </mxCell>
                <mxCell id="52" value="items" style="swimlane;childLayout=stackLayout;horizontal=1;startSize=30;horizontalStack=0;rounded=1;fontSize=14;fontStyle=0;strokeWidth=2;resizeParent=0;resizeLast=1;shadow=0;dashed=0;align=center;" parent="1" vertex="1">
                    <mxGeometry x="520" y="-1380" width="160" height="400" as="geometry"/>
                </mxCell>
                <mxCell id="53" value="item_name&#10;&#10;price&#10;&#10;item_rede&#10;&#10;user_id&#10;&#10;category&#10;&#10;items_status&#10;&#10;derivery_charge&#10;&#10;derivery_source&#10;&#10;derivery_days&#10;&#10;" style="align=left;strokeColor=none;fillColor=none;spacingLeft=4;fontSize=12;verticalAlign=top;resizable=0;rotatable=0;part=1;" parent="52" vertex="1">
                    <mxGeometry y="30" width="160" height="370" as="geometry"/>
                </mxCell>
                <mxCell id="46" value="users" style="swimlane;childLayout=stackLayout;horizontal=1;startSize=30;horizontalStack=0;rounded=1;fontSize=14;fontStyle=0;strokeWidth=2;resizeParent=0;resizeLast=1;shadow=0;dashed=0;align=center;labelBackgroundColor=none;" parent="1" vertex="1">
                    <mxGeometry x="70" y="-1360" width="160" height="245" as="geometry"/>
                </mxCell>
                <mxCell id="47" value="nickname&#10;&#10;email&#10;&#10;passward&#10;&#10;firstname&#10;&#10;lastname&#10;&#10;birth_day&#10;&#10;" style="align=left;strokeColor=none;fillColor=none;spacingLeft=4;fontSize=12;verticalAlign=top;resizable=0;rotatable=0;part=1;" parent="46" vertex="1">
                    <mxGeometry y="30" width="160" height="215" as="geometry"/>
                </mxCell>
                <mxCell id="55" value="destinations" style="swimlane;childLayout=stackLayout;horizontal=1;startSize=30;horizontalStack=0;rounded=1;fontSize=14;fontStyle=0;strokeWidth=2;resizeParent=0;resizeLast=1;shadow=0;dashed=0;align=center;labelBackgroundColor=none;" parent="1" vertex="1">
                    <mxGeometry x="100" y="-940" width="160" height="300" as="geometry"/>
                </mxCell>
                <mxCell id="56" value="family_name&#10;&#10;first_name&#10;&#10;post_code&#10;&#10;prefecture&#10;&#10;city&#10;&#10;adress&#10;&#10;building_name&#10;&#10;phone_number&#10;&#10;user_id" style="align=left;strokeColor=none;fillColor=none;spacingLeft=4;fontSize=12;verticalAlign=top;resizable=0;rotatable=0;part=1;" parent="55" vertex="1">
                    <mxGeometry y="30" width="160" height="270" as="geometry"/>
                </mxCell>
                <mxCell id="65" value="" style="edgeStyle=entityRelationEdgeStyle;fontSize=12;html=1;endArrow=ERzeroToMany;startArrow=ERzeroToOne;entryX=0.013;entryY=0.967;entryDx=0;entryDy=0;entryPerimeter=0;" edge="1" parent="1" target="47">
                    <mxGeometry width="100" height="100" relative="1" as="geometry">
                        <mxPoint x="250" y="-920" as="sourcePoint"/>
                        <mxPoint x="350" y="-1020" as="targetPoint"/>
                    </mxGeometry>
                </mxCell>
                <mxCell id="70" value="" style="edgeStyle=entityRelationEdgeStyle;fontSize=12;html=1;endArrow=ERzeroToMany;startArrow=ERzeroToOne;" edge="1" parent="1" source="76">
                    <mxGeometry width="100" height="100" relative="1" as="geometry">
                        <mxPoint x="420" y="-910" as="sourcePoint"/>
                        <mxPoint x="520" y="-1010" as="targetPoint"/>
                    </mxGeometry>
                </mxCell>
                <mxCell id="72" value="" style="edgeStyle=entityRelationEdgeStyle;fontSize=12;html=1;endArrow=ERmany;startArrow=ERmany;" edge="1" parent="1">
                    <mxGeometry width="100" height="100" relative="1" as="geometry">
                        <mxPoint x="240" y="-1220" as="sourcePoint"/>
                        <mxPoint x="510" y="-1220" as="targetPoint"/>
                    </mxGeometry>
                </mxCell>
                <mxCell id="76" value="images" style="swimlane;childLayout=stackLayout;horizontal=1;startSize=30;horizontalStack=0;rounded=1;fontSize=14;fontStyle=0;strokeWidth=2;resizeParent=0;resizeLast=1;shadow=0;dashed=0;align=center;" vertex="1" parent="1">
                    <mxGeometry x="520" y="-900" width="160" height="120" as="geometry"/>
                </mxCell>
                <mxCell id="77" value="image&#10;&#10;item_id" style="align=left;strokeColor=none;fillColor=none;spacingLeft=4;fontSize=12;verticalAlign=top;resizable=0;rotatable=0;part=1;" vertex="1" parent="76">
                    <mxGeometry y="30" width="160" height="90" as="geometry"/>
                </mxCell>
                <mxCell id="78" value="orders" style="swimlane;childLayout=stackLayout;horizontal=1;startSize=30;horizontalStack=0;rounded=1;fontSize=14;fontStyle=0;strokeWidth=2;resizeParent=0;resizeLast=1;shadow=0;dashed=0;align=center;" vertex="1" parent="1">
                    <mxGeometry x="100" y="-1530" width="100" height="80" as="geometry"/>
                </mxCell>
                <mxCell id="79" value="price&#10;&#10;" style="align=left;strokeColor=none;fillColor=none;spacingLeft=4;fontSize=12;verticalAlign=top;resizable=0;rotatable=0;part=1;" vertex="1" parent="78">
                    <mxGeometry y="30" width="100" height="50" as="geometry"/>
                </mxCell>
                <mxCell id="81" value="" style="edgeStyle=entityRelationEdgeStyle;fontSize=12;html=1;endArrow=ERmandOne;startArrow=ERmandOne;entryX=0;entryY=0.073;entryDx=0;entryDy=0;entryPerimeter=0;exitX=1;exitY=0.75;exitDx=0;exitDy=0;" edge="1" parent="1" source="79" target="46">
                    <mxGeometry width="100" height="100" relative="1" as="geometry">
                        <mxPoint x="170" y="-1450" as="sourcePoint"/>
                        <mxPoint x="270" y="-1550" as="targetPoint"/>
                    </mxGeometry>
                </mxCell>
            </root>
        </mxGraphModel>
    </diagram>
</mxfile>